<svg width="14" height="14" viewBox="0 0 14 14" fill="none" xmlns="http://www.w3.org/2000/svg">
<path d="M7.71233 3.05559L10.7654 6.10882L4.13575 12.7388L1.41367 13.0393C1.04926 13.0796 0.741375 12.7715 0.781918 12.407L1.0848 9.68293L7.71233 3.05559ZM12.6538 2.60102L11.2202 1.16742C10.7731 0.720236 10.0478 0.720236 9.60066 1.16742L8.25202 2.51611L11.3051 5.56934L12.6538 4.22065C13.1009 3.77323 13.1009 3.0482 12.6538 2.60102Z" stroke="black" stroke-width="0.5"/>
<path d="M7.71233 3.05559L10.7654 6.10882L4.13575 12.7388L1.41367 13.0393C1.04926 13.0796 0.741375 12.7715 0.781918 12.407L1.0848 9.68293L7.71233 3.05559ZM12.6538 2.60102L11.2202 1.16742C10.7731 0.720236 10.0478 0.720236 9.60066 1.16742L8.25202 2.51611L11.3051 5.56934L12.6538 4.22065C13.1009 3.77323 13.1009 3.0482 12.6538 2.60102Z" stroke="black" stroke-opacity="0.2" stroke-width="0.5"/>
</svg>
