<svg width="21" height="18" viewBox="0 0 21 18" fill="none" xmlns="http://www.w3.org/2000/svg">
<path d="M7.643 8.70773C9.74139 8.70773 11.4421 6.88569 11.4421 4.63756C11.4421 2.38942 9.74139 0.567383 7.643 0.567383C5.54461 0.567383 3.84393 2.38942 3.84393 4.63756C3.84393 6.88569 5.54461 8.70773 7.643 8.70773ZM10.3023 9.72527H9.80668C9.14778 10.0496 8.41468 10.234 7.643 10.234C6.87131 10.234 6.14118 10.0496 5.47931 9.72527H4.98365C2.78138 9.72527 0.994629 11.6395 0.994629 13.999V15.3218C0.994629 16.1644 1.63275 16.8481 2.41928 16.8481H10.5784C10.5071 16.6318 10.4775 16.4029 10.5012 16.1708L10.703 14.2343L10.7386 13.8813L10.9731 13.6301L13.2674 11.1721C12.5402 10.2913 11.4866 9.72527 10.3023 9.72527ZM11.6469 14.3456L11.445 16.2852C11.4124 16.6096 11.6676 16.8831 11.9674 16.8449L13.7749 16.6287L17.8678 12.2437L15.7398 9.96376L11.6469 14.3456ZM19.7822 9.11793L18.6573 7.91277C18.3813 7.61705 17.9302 7.61705 17.6541 7.91277L16.5322 9.11475L16.4105 9.24512L18.5416 11.5251L19.7822 10.1959C20.0582 9.89698 20.0582 9.41683 19.7822 9.11793Z" stroke="black" stroke-width="0.65"/>
</svg>
