<svg width="54" height="41" viewBox="0 0 54 41" fill="none" xmlns="http://www.w3.org/2000/svg">
<rect y="16.6104" width="1.00666" height="6.18374" rx="0.503328" fill="white"/>
<rect x="4.38672" y="12.2236" width="1.00666" height="10.5699" rx="0.503328" fill="white"/>
<rect x="8.84375" y="14.166" width="1.00666" height="18.0479" rx="0.503328" fill="white"/>
<rect x="13.2305" y="21.8594" width="1.00666" height="17.185" rx="0.503328" fill="white"/>
<rect x="17.6885" y="13.7344" width="1.00666" height="19.486" rx="0.503328" fill="white"/>
<rect x="22.0752" y="4.24219" width="1.00666" height="18.5512" rx="0.503328" fill="white"/>
<rect x="26.4609" width="1.00666" height="27.1078" rx="0.503328" fill="white"/>
<rect x="30.8467" y="4.1709" width="1.00666" height="18.6231" rx="0.503328" fill="white"/>
<rect x="35.2334" y="13.6621" width="1.00666" height="19.5579" rx="0.503328" fill="white"/>
<rect x="39.6914" y="21.8594" width="1.00666" height="18.7669" rx="0.503328" fill="white"/>
<rect x="44.1494" y="14.166" width="1.00666" height="17.7603" rx="0.503328" fill="white"/>
<rect x="48.5352" y="12.2236" width="1.00666" height="10.5699" rx="0.503328" fill="white"/>
<rect x="52.9941" y="16.6816" width="1.00666" height="6.11184" rx="0.503328" fill="white"/>
</svg>
